<svg xmlns="http://www.w3.org/2000/svg" version="1.1" xmlns:xlink="http://www.w3.org/1999/xlink" xmlns:svgjs="http://svgjs.com/svgjs" width="1440" height="560" preserveAspectRatio="none" viewBox="0 0 1440 560"><g mask="url(&quot;#SvgjsMask1000&quot;)" fill="none"><rect width="1440" height="560" x="0" y="0" fill="#0e2a47"></rect><path d="M-85.82 368.05L-85.82 368.05" stroke="#132e65" stroke-width="1.5"></path><path d="M-85.82 368.05L-89.18 492.69" stroke="#132e65" stroke-width="1.5"></path><path d="M-89.18 492.69L-89.18 492.69" stroke="#132e65" stroke-width="1.5"></path><path d="M-89.18 492.69L63.92 509.42" stroke="#132e65" stroke-width="1.5"></path><path d="M-89.18 492.69L-58.29 710.18" stroke="#132e65" stroke-width="1.5"></path><path d="M-89.18 492.69L93.54 641.99" stroke="#132e65" stroke-width="1.5"></path><path d="M-58.29 710.18L-58.29 710.18" stroke="#132e65" stroke-width="1.5"></path><path d="M-58.29 710.18L93.54 641.99" stroke="#132e65" stroke-width="1.5"></path><path d="M95.72 337.95L95.72 337.95" stroke="#132e65" stroke-width="1.5"></path><path d="M95.72 337.95L234.92 369.18" stroke="#132e65" stroke-width="1.5"></path><path d="M95.72 337.95L63.92 509.42" stroke="#132e65" stroke-width="1.5"></path><path d="M95.72 337.95L-85.82 368.05" stroke="#132e65" stroke-width="1.5"></path><path d="M95.72 337.95L229.17 509.49" stroke="#132e65" stroke-width="1.5"></path><path d="M95.72 337.95L-89.18 492.69" stroke="#132e65" stroke-width="1.5"></path><path d="M95.72 337.95L93.54 641.99" stroke="#132e65" stroke-width="1.5"></path><path d="M63.92 509.42L63.92 509.42" stroke="#132e65" stroke-width="1.5"></path><path d="M63.92 509.42L93.54 641.99" stroke="#132e65" stroke-width="1.5"></path><path d="M63.92 509.42L229.17 509.49" stroke="#132e65" stroke-width="1.5"></path><path d="M63.92 509.42L-85.82 368.05" stroke="#132e65" stroke-width="1.5"></path><path d="M63.92 509.42L234.92 369.18" stroke="#132e65" stroke-width="1.5"></path><path d="M93.54 641.99L93.54 641.99" stroke="#132e65" stroke-width="1.5"></path><path d="M93.54 641.99L248.73 654.27" stroke="#132e65" stroke-width="1.5"></path><path d="M93.54 641.99L229.17 509.49" stroke="#132e65" stroke-width="1.5"></path><path d="M93.54 641.99L370.78 671.25" stroke="#132e65" stroke-width="1.5"></path><path d="M234.92 369.18L234.92 369.18" stroke="#132e65" stroke-width="1.5"></path><path d="M234.92 369.18L229.17 509.49" stroke="#132e65" stroke-width="1.5"></path><path d="M234.92 369.18L401.46 381.55" stroke="#132e65" stroke-width="1.5"></path><path d="M234.92 369.18L385.72 488.29" stroke="#132e65" stroke-width="1.5"></path><path d="M229.17 509.49L229.17 509.49" stroke="#132e65" stroke-width="1.5"></path><path d="M248.73 654.27L248.73 654.27" stroke="#132e65" stroke-width="1.5"></path><path d="M248.73 654.27L370.78 671.25" stroke="#132e65" stroke-width="1.5"></path><path d="M248.73 654.27L229.17 509.49" stroke="#132e65" stroke-width="1.5"></path><path d="M248.73 654.27L385.72 488.29" stroke="#132e65" stroke-width="1.5"></path><path d="M248.73 654.27L63.92 509.42" stroke="#132e65" stroke-width="1.5"></path><path d="M401.46 381.55L401.46 381.55" stroke="#132e65" stroke-width="1.5"></path><path d="M401.46 381.55L385.72 488.29" stroke="#132e65" stroke-width="1.5"></path><path d="M401.46 381.55L537.9 403.72" stroke="#132e65" stroke-width="1.5"></path><path d="M385.72 488.29L385.72 488.29" stroke="#132e65" stroke-width="1.5"></path><path d="M385.72 488.29L521.23 535.86" stroke="#132e65" stroke-width="1.5"></path><path d="M385.72 488.29L229.17 509.49" stroke="#132e65" stroke-width="1.5"></path><path d="M370.78 671.25L370.78 671.25" stroke="#132e65" stroke-width="1.5"></path><path d="M370.78 671.25L519.77 658.72" stroke="#132e65" stroke-width="1.5"></path><path d="M370.78 671.25L385.72 488.29" stroke="#132e65" stroke-width="1.5"></path><path d="M537.9 403.72L537.9 403.72" stroke="#132e65" stroke-width="1.5"></path><path d="M537.9 403.72L521.23 535.86" stroke="#132e65" stroke-width="1.5"></path><path d="M537.9 403.72L668.05 351.48" stroke="#132e65" stroke-width="1.5"></path><path d="M521.23 535.86L521.23 535.86" stroke="#132e65" stroke-width="1.5"></path><path d="M521.23 535.86L641.72 543.08" stroke="#132e65" stroke-width="1.5"></path><path d="M521.23 535.86L519.77 658.72" stroke="#132e65" stroke-width="1.5"></path><path d="M521.23 535.86L401.46 381.55" stroke="#132e65" stroke-width="1.5"></path><path d="M521.23 535.86L370.78 671.25" stroke="#132e65" stroke-width="1.5"></path><path d="M519.77 658.72L519.77 658.72" stroke="#132e65" stroke-width="1.5"></path><path d="M519.77 658.72L659.06 704.86" stroke="#132e65" stroke-width="1.5"></path><path d="M519.77 658.72L641.72 543.08" stroke="#132e65" stroke-width="1.5"></path><path d="M519.77 658.72L385.72 488.29" stroke="#132e65" stroke-width="1.5"></path><path d="M689.64 250.51L689.64 250.51" stroke="#132e65" stroke-width="1.5"></path><path d="M689.64 250.51L668.05 351.48" stroke="#132e65" stroke-width="1.5"></path><path d="M689.64 250.51L809.83 249.58" stroke="#132e65" stroke-width="1.5"></path><path d="M689.64 250.51L792.74 360.45" stroke="#132e65" stroke-width="1.5"></path><path d="M689.64 250.51L537.9 403.72" stroke="#132e65" stroke-width="1.5"></path><path d="M689.64 250.51L946.66 230.55" stroke="#132e65" stroke-width="1.5"></path><path d="M668.05 351.48L668.05 351.48" stroke="#132e65" stroke-width="1.5"></path><path d="M668.05 351.48L792.74 360.45" stroke="#132e65" stroke-width="1.5"></path><path d="M668.05 351.48L809.83 249.58" stroke="#132e65" stroke-width="1.5"></path><path d="M668.05 351.48L641.72 543.08" stroke="#132e65" stroke-width="1.5"></path><path d="M668.05 351.48L835.96 502.17" stroke="#132e65" stroke-width="1.5"></path><path d="M641.72 543.08L641.72 543.08" stroke="#132e65" stroke-width="1.5"></path><path d="M641.72 543.08L659.06 704.86" stroke="#132e65" stroke-width="1.5"></path><path d="M641.72 543.08L537.9 403.72" stroke="#132e65" stroke-width="1.5"></path><path d="M659.06 704.86L659.06 704.86" stroke="#132e65" stroke-width="1.5"></path><path d="M659.06 704.86L809.43 696.11" stroke="#132e65" stroke-width="1.5"></path><path d="M659.06 704.86L521.23 535.86" stroke="#132e65" stroke-width="1.5"></path><path d="M659.06 704.86L835.96 502.17" stroke="#132e65" stroke-width="1.5"></path><path d="M659.06 704.86L370.78 671.25" stroke="#132e65" stroke-width="1.5"></path><path d="M809.83 249.58L809.83 249.58" stroke="#132e65" stroke-width="1.5"></path><path d="M809.83 249.58L792.74 360.45" stroke="#132e65" stroke-width="1.5"></path><path d="M792.74 360.45L792.74 360.45" stroke="#132e65" stroke-width="1.5"></path><path d="M792.74 360.45L835.96 502.17" stroke="#132e65" stroke-width="1.5"></path><path d="M835.96 502.17L835.96 502.17" stroke="#132e65" stroke-width="1.5"></path><path d="M835.96 502.17L969.83 406.49" stroke="#132e65" stroke-width="1.5"></path><path d="M835.96 502.17L809.43 696.11" stroke="#132e65" stroke-width="1.5"></path><path d="M809.43 696.11L809.43 696.11" stroke="#132e65" stroke-width="1.5"></path><path d="M809.43 696.11L973.08 696.1" stroke="#132e65" stroke-width="1.5"></path><path d="M1009.19 -75.33L1009.19 -75.33" stroke="#132e65" stroke-width="1.5"></path><path d="M1009.19 -75.33L1011.08 39.8" stroke="#132e65" stroke-width="1.5"></path><path d="M1009.19 -75.33L1160.87 -78.7" stroke="#132e65" stroke-width="1.5"></path><path d="M1009.19 -75.33L1131.86 93.8" stroke="#132e65" stroke-width="1.5"></path><path d="M1009.19 -75.33L1265.86 58.01" stroke="#132e65" stroke-width="1.5"></path><path d="M1011.08 39.8L1011.08 39.8" stroke="#132e65" stroke-width="1.5"></path><path d="M1011.08 39.8L1131.86 93.8" stroke="#132e65" stroke-width="1.5"></path><path d="M1011.08 39.8L1160.87 -78.7" stroke="#132e65" stroke-width="1.5"></path><path d="M946.66 230.55L946.66 230.55" stroke="#132e65" stroke-width="1.5"></path><path d="M946.66 230.55L809.83 249.58" stroke="#132e65" stroke-width="1.5"></path><path d="M946.66 230.55L969.83 406.49" stroke="#132e65" stroke-width="1.5"></path><path d="M946.66 230.55L1011.08 39.8" stroke="#132e65" stroke-width="1.5"></path><path d="M946.66 230.55L792.74 360.45" stroke="#132e65" stroke-width="1.5"></path><path d="M969.83 406.49L969.83 406.49" stroke="#132e65" stroke-width="1.5"></path><path d="M969.83 406.49L1122.25 361.42" stroke="#132e65" stroke-width="1.5"></path><path d="M969.83 406.49L792.74 360.45" stroke="#132e65" stroke-width="1.5"></path><path d="M969.83 406.49L809.83 249.58" stroke="#132e65" stroke-width="1.5"></path><path d="M969.83 406.49L1094.78 651.92" stroke="#132e65" stroke-width="1.5"></path><path d="M973.08 696.1L973.08 696.1" stroke="#132e65" stroke-width="1.5"></path><path d="M973.08 696.1L1094.78 651.92" stroke="#132e65" stroke-width="1.5"></path><path d="M973.08 696.1L835.96 502.17" stroke="#132e65" stroke-width="1.5"></path><path d="M973.08 696.1L969.83 406.49" stroke="#132e65" stroke-width="1.5"></path><path d="M973.08 696.1L1277.95 644.86" stroke="#132e65" stroke-width="1.5"></path><path d="M973.08 696.1L659.06 704.86" stroke="#132e65" stroke-width="1.5"></path><path d="M1160.87 -78.7L1160.87 -78.7" stroke="#132e65" stroke-width="1.5"></path><path d="M1160.87 -78.7L1265.86 58.01" stroke="#132e65" stroke-width="1.5"></path><path d="M1131.86 93.8L1131.86 93.8" stroke="#132e65" stroke-width="1.5"></path><path d="M1131.86 93.8L1265.86 58.01" stroke="#132e65" stroke-width="1.5"></path><path d="M1131.86 93.8L1160.87 -78.7" stroke="#132e65" stroke-width="1.5"></path><path d="M1131.86 93.8L1278.77 213.04" stroke="#132e65" stroke-width="1.5"></path><path d="M1131.86 93.8L946.66 230.55" stroke="#132e65" stroke-width="1.5"></path><path d="M1122.25 361.42L1122.25 361.42" stroke="#132e65" stroke-width="1.5"></path><path d="M1122.25 361.42L1259.86 400.44" stroke="#132e65" stroke-width="1.5"></path><path d="M1122.25 361.42L1237.83 489.94" stroke="#132e65" stroke-width="1.5"></path><path d="M1122.25 361.42L1278.77 213.04" stroke="#132e65" stroke-width="1.5"></path><path d="M1094.78 651.92L1094.78 651.92" stroke="#132e65" stroke-width="1.5"></path><path d="M1094.78 651.92L1277.95 644.86" stroke="#132e65" stroke-width="1.5"></path><path d="M1094.78 651.92L1237.83 489.94" stroke="#132e65" stroke-width="1.5"></path><path d="M1265.86 58.01L1265.86 58.01" stroke="#132e65" stroke-width="1.5"></path><path d="M1265.86 58.01L1278.77 213.04" stroke="#132e65" stroke-width="1.5"></path><path d="M1265.86 58.01L1443.24 58.94" stroke="#132e65" stroke-width="1.5"></path><path d="M1265.86 58.01L1406.79 204.92" stroke="#132e65" stroke-width="1.5"></path><path d="M1265.86 58.01L1011.08 39.8" stroke="#132e65" stroke-width="1.5"></path><path d="M1278.77 213.04L1278.77 213.04" stroke="#132e65" stroke-width="1.5"></path><path d="M1278.77 213.04L1406.79 204.92" stroke="#132e65" stroke-width="1.5"></path><path d="M1259.86 400.44L1259.86 400.44" stroke="#132e65" stroke-width="1.5"></path><path d="M1259.86 400.44L1237.83 489.94" stroke="#132e65" stroke-width="1.5"></path><path d="M1237.83 489.94L1237.83 489.94" stroke="#132e65" stroke-width="1.5"></path><path d="M1237.83 489.94L1387.98 506.98" stroke="#132e65" stroke-width="1.5"></path><path d="M1237.83 489.94L1277.95 644.86" stroke="#132e65" stroke-width="1.5"></path><path d="M1237.83 489.94L1428.46 407.08" stroke="#132e65" stroke-width="1.5"></path><path d="M1277.95 644.86L1277.95 644.86" stroke="#132e65" stroke-width="1.5"></path><path d="M1277.95 644.86L1387.98 506.98" stroke="#132e65" stroke-width="1.5"></path><path d="M1277.95 644.86L1259.86 400.44" stroke="#132e65" stroke-width="1.5"></path><path d="M1277.95 644.86L1428.46 407.08" stroke="#132e65" stroke-width="1.5"></path><path d="M1443.24 58.94L1443.24 58.94" stroke="#132e65" stroke-width="1.5"></path><path d="M1443.24 58.94L1406.79 204.92" stroke="#132e65" stroke-width="1.5"></path><path d="M1443.24 58.94L1598.94 66.39" stroke="#132e65" stroke-width="1.5"></path><path d="M1406.79 204.92L1406.79 204.92" stroke="#132e65" stroke-width="1.5"></path><path d="M1406.79 204.92L1581.88 259.12" stroke="#132e65" stroke-width="1.5"></path><path d="M1406.79 204.92L1428.46 407.08" stroke="#132e65" stroke-width="1.5"></path><path d="M1406.79 204.92L1598.94 66.39" stroke="#132e65" stroke-width="1.5"></path><path d="M1428.46 407.08L1428.46 407.08" stroke="#132e65" stroke-width="1.5"></path><path d="M1428.46 407.08L1387.98 506.98" stroke="#132e65" stroke-width="1.5"></path><path d="M1428.46 407.08L1575.89 412.11" stroke="#132e65" stroke-width="1.5"></path><path d="M1428.46 407.08L1259.86 400.44" stroke="#132e65" stroke-width="1.5"></path><path d="M1387.98 506.98L1387.98 506.98" stroke="#132e65" stroke-width="1.5"></path><path d="M1387.98 506.98L1259.86 400.44" stroke="#132e65" stroke-width="1.5"></path><path d="M1550.88 -62.19L1550.88 -62.19" stroke="#132e65" stroke-width="1.5"></path><path d="M1550.88 -62.19L1598.94 66.39" stroke="#132e65" stroke-width="1.5"></path><path d="M1550.88 -62.19L1443.24 58.94" stroke="#132e65" stroke-width="1.5"></path><path d="M1598.94 66.39L1598.94 66.39" stroke="#132e65" stroke-width="1.5"></path><path d="M1581.88 259.12L1581.88 259.12" stroke="#132e65" stroke-width="1.5"></path><path d="M1581.88 259.12L1575.89 412.11" stroke="#132e65" stroke-width="1.5"></path><path d="M1581.88 259.12L1598.94 66.39" stroke="#132e65" stroke-width="1.5"></path><path d="M1575.89 412.11L1575.89 412.11" stroke="#132e65" stroke-width="1.5"></path><path d="M1575.89 412.11L1574.71 501.09" stroke="#132e65" stroke-width="1.5"></path><path d="M1574.71 501.09L1574.71 501.09" stroke="#132e65" stroke-width="1.5"></path><path d="M1574.71 501.09L1428.46 407.08" stroke="#132e65" stroke-width="1.5"></path><path d="M1574.71 501.09L1387.98 506.98" stroke="#132e65" stroke-width="1.5"></path><path d="M1574.71 501.09L1606.31 693.05" stroke="#132e65" stroke-width="1.5"></path><path d="M1574.71 501.09L1581.88 259.12" stroke="#132e65" stroke-width="1.5"></path><path d="M1606.31 693.05L1606.31 693.05" stroke="#132e65" stroke-width="1.5"></path><path d="M1606.31 693.05L1575.89 412.11" stroke="#132e65" stroke-width="1.5"></path><path d="M1606.31 693.05L1387.98 506.98" stroke="#132e65" stroke-width="1.5"></path><path d="M1606.31 693.05L1277.95 644.86" stroke="#132e65" stroke-width="1.5"></path><circle r="5" cx="-85.82" cy="368.05" fill="#132e65"></circle><circle r="5" cx="-89.18" cy="492.69" fill="#132e65"></circle><circle r="5" cx="-58.29" cy="710.18" fill="#132e65"></circle><circle r="5" cx="95.72" cy="337.95" fill="#132e65"></circle><circle r="5" cx="63.92" cy="509.42" fill="#132e65"></circle><circle r="5" cx="93.54" cy="641.99" fill="#132e65"></circle><circle r="5" cx="234.92" cy="369.18" fill="#132e65"></circle><circle r="5" cx="229.17" cy="509.49" fill="#132e65"></circle><circle r="5" cx="248.73" cy="654.27" fill="#132e65"></circle><circle r="5" cx="401.46" cy="381.55" fill="#132e65"></circle><circle r="5" cx="385.72" cy="488.29" fill="#132e65"></circle><circle r="5" cx="370.78" cy="671.25" fill="#132e65"></circle><circle r="5" cx="537.9" cy="403.72" fill="#132e65"></circle><circle r="5" cx="521.23" cy="535.86" fill="#132e65"></circle><circle r="5" cx="519.77" cy="658.72" fill="#132e65"></circle><circle r="5" cx="689.64" cy="250.51" fill="#132e65"></circle><circle r="5" cx="668.05" cy="351.48" fill="#132e65"></circle><circle r="5" cx="641.72" cy="543.08" fill="#132e65"></circle><circle r="5" cx="659.06" cy="704.86" fill="#132e65"></circle><circle r="5" cx="809.83" cy="249.58" fill="#132e65"></circle><circle r="5" cx="792.74" cy="360.45" fill="#132e65"></circle><circle r="5" cx="835.96" cy="502.17" fill="#132e65"></circle><circle r="5" cx="809.43" cy="696.11" fill="#132e65"></circle><circle r="5" cx="1009.19" cy="-75.33" fill="#132e65"></circle><circle r="5" cx="1011.08" cy="39.8" fill="#132e65"></circle><circle r="5" cx="946.66" cy="230.55" fill="#132e65"></circle><circle r="5" cx="969.83" cy="406.49" fill="#132e65"></circle><circle r="5" cx="973.08" cy="696.1" fill="#132e65"></circle><circle r="5" cx="1160.87" cy="-78.7" fill="#132e65"></circle><circle r="5" cx="1131.86" cy="93.8" fill="#132e65"></circle><circle r="5" cx="1122.25" cy="361.42" fill="#132e65"></circle><circle r="5" cx="1094.78" cy="651.92" fill="#132e65"></circle><circle r="5" cx="1265.86" cy="58.01" fill="#132e65"></circle><circle r="5" cx="1278.77" cy="213.04" fill="#132e65"></circle><circle r="5" cx="1259.86" cy="400.44" fill="#132e65"></circle><circle r="5" cx="1237.83" cy="489.94" fill="#132e65"></circle><circle r="5" cx="1277.95" cy="644.86" fill="#132e65"></circle><circle r="5" cx="1443.24" cy="58.94" fill="#132e65"></circle><circle r="5" cx="1406.79" cy="204.92" fill="#132e65"></circle><circle r="5" cx="1428.46" cy="407.08" fill="#132e65"></circle><circle r="5" cx="1387.98" cy="506.98" fill="#132e65"></circle><circle r="5" cx="1550.88" cy="-62.19" fill="#132e65"></circle><circle r="5" cx="1598.94" cy="66.39" fill="#132e65"></circle><circle r="5" cx="1581.88" cy="259.12" fill="#132e65"></circle><circle r="5" cx="1575.89" cy="412.11" fill="#132e65"></circle><circle r="5" cx="1574.71" cy="501.09" fill="#132e65"></circle><circle r="5" cx="1606.31" cy="693.05" fill="#132e65"></circle><path d="M-109.55 647.29L-109.55 647.29" stroke="hsl(228.5, 77.2%, 51.5%)" stroke-width="1.5"></path><path d="M-109.55 647.29L-39.32 550.84" stroke="hsl(228.5, 77.2%, 51.5%)" stroke-width="1.5"></path><path d="M-109.55 647.29L44.3 684.53" stroke="hsl(228.5, 77.2%, 51.5%)" stroke-width="1.5"></path><path d="M-109.55 647.29L81.44 504" stroke="hsl(228.5, 77.2%, 51.5%)" stroke-width="1.5"></path><path d="M1139.35 526.72L1139.35 526.72" stroke="hsl(228.5, 77.2%, 51.5%)" stroke-width="1.5"></path><path d="M1139.35 526.72L1271.49 549.65" stroke="hsl(228.5, 77.2%, 51.5%)" stroke-width="1.5"></path><path d="M1139.35 526.72L961.67 533.22" stroke="hsl(228.5, 77.2%, 51.5%)" stroke-width="1.5"></path><path d="M1139.35 526.72L1157.07 708.12" stroke="hsl(228.5, 77.2%, 51.5%)" stroke-width="1.5"></path><path d="M1139.35 526.72L979.51 685.62" stroke="hsl(228.5, 77.2%, 51.5%)" stroke-width="1.5"></path><path d="M1252.9 66.7L1252.9 66.7" stroke="hsl(228.5, 77.2%, 51.5%)" stroke-width="1.5"></path><path d="M1252.9 66.7L1298.3 -69.61" stroke="hsl(228.5, 77.2%, 51.5%)" stroke-width="1.5"></path><path d="M1252.9 66.7L1392.21 104.77" stroke="hsl(228.5, 77.2%, 51.5%)" stroke-width="1.5"></path><path d="M1252.9 66.7L1268.58 239.72" stroke="hsl(228.5, 77.2%, 51.5%)" stroke-width="1.5"></path><path d="M1252.9 66.7L1118.34 252.57" stroke="hsl(228.5, 77.2%, 51.5%)" stroke-width="1.5"></path><path d="M1271.49 549.65L1271.49 549.65" stroke="hsl(228.5, 77.2%, 51.5%)" stroke-width="1.5"></path><path d="M1271.49 549.65L1309.41 684.11" stroke="hsl(228.5, 77.2%, 51.5%)" stroke-width="1.5"></path><path d="M1271.49 549.65L1441.13 520.56" stroke="hsl(228.5, 77.2%, 51.5%)" stroke-width="1.5"></path><path d="M1271.49 549.65L1424.02 651.91" stroke="hsl(228.5, 77.2%, 51.5%)" stroke-width="1.5"></path><path d="M1422.13 241.54L1422.13 241.54" stroke="hsl(228.5, 77.2%, 51.5%)" stroke-width="1.5"></path><path d="M1422.13 241.54L1453.4 371.35" stroke="hsl(228.5, 77.2%, 51.5%)" stroke-width="1.5"></path><path d="M1422.13 241.54L1392.21 104.77" stroke="hsl(228.5, 77.2%, 51.5%)" stroke-width="1.5"></path><path d="M1422.13 241.54L1566.66 262.16" stroke="hsl(228.5, 77.2%, 51.5%)" stroke-width="1.5"></path><path d="M1422.13 241.54L1268.58 239.72" stroke="hsl(228.5, 77.2%, 51.5%)" stroke-width="1.5"></path><path d="M1441.13 520.56L1441.13 520.56" stroke="hsl(228.5, 77.2%, 51.5%)" stroke-width="1.5"></path><path d="M1441.13 520.56L1424.02 651.91" stroke="hsl(228.5, 77.2%, 51.5%)" stroke-width="1.5"></path><path d="M1441.13 520.56L1581.04 560.98" stroke="hsl(228.5, 77.2%, 51.5%)" stroke-width="1.5"></path><path d="M1441.13 520.56L1453.4 371.35" stroke="hsl(228.5, 77.2%, 51.5%)" stroke-width="1.5"></path><path d="M-39.32 550.84L-39.32 550.84" stroke="hsl(228.5, 77.2%, 51.5%)" stroke-width="1.5"></path><path d="M-39.32 550.84L81.44 504" stroke="hsl(228.5, 77.2%, 51.5%)" stroke-width="1.5"></path><path d="M-39.32 550.84L44.3 684.53" stroke="hsl(228.5, 77.2%, 51.5%)" stroke-width="1.5"></path><path d="M-39.32 550.84L210.62 645.16" stroke="hsl(228.5, 77.2%, 51.5%)" stroke-width="1.5"></path><path d="M-39.32 550.84L246.91 514.92" stroke="hsl(228.5, 77.2%, 51.5%)" stroke-width="1.5"></path><path d="M-39.32 550.84L364.1 502.59" stroke="hsl(228.5, 77.2%, 51.5%)" stroke-width="1.5"></path><path d="M81.44 504L81.44 504" stroke="hsl(228.5, 77.2%, 51.5%)" stroke-width="1.5"></path><path d="M81.44 504L246.91 514.92" stroke="hsl(228.5, 77.2%, 51.5%)" stroke-width="1.5"></path><path d="M81.44 504L44.3 684.53" stroke="hsl(228.5, 77.2%, 51.5%)" stroke-width="1.5"></path><path d="M81.44 504L210.62 645.16" stroke="hsl(228.5, 77.2%, 51.5%)" stroke-width="1.5"></path><path d="M44.3 684.53L44.3 684.53" stroke="hsl(228.5, 77.2%, 51.5%)" stroke-width="1.5"></path><path d="M44.3 684.53L210.62 645.16" stroke="hsl(228.5, 77.2%, 51.5%)" stroke-width="1.5"></path><path d="M246.91 514.92L246.91 514.92" stroke="hsl(228.5, 77.2%, 51.5%)" stroke-width="1.5"></path><path d="M246.91 514.92L364.1 502.59" stroke="hsl(228.5, 77.2%, 51.5%)" stroke-width="1.5"></path><path d="M246.91 514.92L210.62 645.16" stroke="hsl(228.5, 77.2%, 51.5%)" stroke-width="1.5"></path><path d="M246.91 514.92L385.99 651.76" stroke="hsl(228.5, 77.2%, 51.5%)" stroke-width="1.5"></path><path d="M246.91 514.92L44.3 684.53" stroke="hsl(228.5, 77.2%, 51.5%)" stroke-width="1.5"></path><path d="M210.62 645.16L210.62 645.16" stroke="hsl(228.5, 77.2%, 51.5%)" stroke-width="1.5"></path><path d="M210.62 645.16L385.99 651.76" stroke="hsl(228.5, 77.2%, 51.5%)" stroke-width="1.5"></path><path d="M210.62 645.16L364.1 502.59" stroke="hsl(228.5, 77.2%, 51.5%)" stroke-width="1.5"></path><path d="M364.1 502.59L364.1 502.59" stroke="hsl(228.5, 77.2%, 51.5%)" stroke-width="1.5"></path><path d="M364.1 502.59L385.99 651.76" stroke="hsl(228.5, 77.2%, 51.5%)" stroke-width="1.5"></path><path d="M364.1 502.59L535.26 529.7" stroke="hsl(228.5, 77.2%, 51.5%)" stroke-width="1.5"></path><path d="M385.99 651.76L385.99 651.76" stroke="hsl(228.5, 77.2%, 51.5%)" stroke-width="1.5"></path><path d="M385.99 651.76L521.17 661.98" stroke="hsl(228.5, 77.2%, 51.5%)" stroke-width="1.5"></path><path d="M385.99 651.76L535.26 529.7" stroke="hsl(228.5, 77.2%, 51.5%)" stroke-width="1.5"></path><path d="M535.57 408.77L535.57 408.77" stroke="hsl(228.5, 77.2%, 51.5%)" stroke-width="1.5"></path><path d="M535.57 408.77L535.26 529.7" stroke="hsl(228.5, 77.2%, 51.5%)" stroke-width="1.5"></path><path d="M535.57 408.77L665.8 540.01" stroke="hsl(228.5, 77.2%, 51.5%)" stroke-width="1.5"></path><path d="M535.57 408.77L364.1 502.59" stroke="hsl(228.5, 77.2%, 51.5%)" stroke-width="1.5"></path><path d="M535.57 408.77L521.17 661.98" stroke="hsl(228.5, 77.2%, 51.5%)" stroke-width="1.5"></path><path d="M535.57 408.77L666.75 643.42" stroke="hsl(228.5, 77.2%, 51.5%)" stroke-width="1.5"></path><path d="M535.26 529.7L535.26 529.7" stroke="hsl(228.5, 77.2%, 51.5%)" stroke-width="1.5"></path><path d="M535.26 529.7L665.8 540.01" stroke="hsl(228.5, 77.2%, 51.5%)" stroke-width="1.5"></path><path d="M535.26 529.7L521.17 661.98" stroke="hsl(228.5, 77.2%, 51.5%)" stroke-width="1.5"></path><path d="M521.17 661.98L521.17 661.98" stroke="hsl(228.5, 77.2%, 51.5%)" stroke-width="1.5"></path><path d="M521.17 661.98L666.75 643.42" stroke="hsl(228.5, 77.2%, 51.5%)" stroke-width="1.5"></path><path d="M521.17 661.98L665.8 540.01" stroke="hsl(228.5, 77.2%, 51.5%)" stroke-width="1.5"></path><path d="M521.17 661.98L364.1 502.59" stroke="hsl(228.5, 77.2%, 51.5%)" stroke-width="1.5"></path><path d="M665.8 540.01L665.8 540.01" stroke="hsl(228.5, 77.2%, 51.5%)" stroke-width="1.5"></path><path d="M665.8 540.01L666.75 643.42" stroke="hsl(228.5, 77.2%, 51.5%)" stroke-width="1.5"></path><path d="M665.8 540.01L801.95 534.63" stroke="hsl(228.5, 77.2%, 51.5%)" stroke-width="1.5"></path><path d="M666.75 643.42L666.75 643.42" stroke="hsl(228.5, 77.2%, 51.5%)" stroke-width="1.5"></path><path d="M666.75 643.42L803.59 683.82" stroke="hsl(228.5, 77.2%, 51.5%)" stroke-width="1.5"></path><path d="M830.01 384.33L830.01 384.33" stroke="hsl(228.5, 77.2%, 51.5%)" stroke-width="1.5"></path><path d="M830.01 384.33L968.72 371.28" stroke="hsl(228.5, 77.2%, 51.5%)" stroke-width="1.5"></path><path d="M830.01 384.33L801.95 534.63" stroke="hsl(228.5, 77.2%, 51.5%)" stroke-width="1.5"></path><path d="M801.95 534.63L801.95 534.63" stroke="hsl(228.5, 77.2%, 51.5%)" stroke-width="1.5"></path><path d="M801.95 534.63L803.59 683.82" stroke="hsl(228.5, 77.2%, 51.5%)" stroke-width="1.5"></path><path d="M801.95 534.63L961.67 533.22" stroke="hsl(228.5, 77.2%, 51.5%)" stroke-width="1.5"></path><path d="M803.59 683.82L803.59 683.82" stroke="hsl(228.5, 77.2%, 51.5%)" stroke-width="1.5"></path><path d="M803.59 683.82L979.51 685.62" stroke="hsl(228.5, 77.2%, 51.5%)" stroke-width="1.5"></path><path d="M803.59 683.82L665.8 540.01" stroke="hsl(228.5, 77.2%, 51.5%)" stroke-width="1.5"></path><path d="M803.59 683.82L961.67 533.22" stroke="hsl(228.5, 77.2%, 51.5%)" stroke-width="1.5"></path><path d="M973.44 251.03L973.44 251.03" stroke="hsl(228.5, 77.2%, 51.5%)" stroke-width="1.5"></path><path d="M973.44 251.03L968.72 371.28" stroke="hsl(228.5, 77.2%, 51.5%)" stroke-width="1.5"></path><path d="M973.44 251.03L1118.34 252.57" stroke="hsl(228.5, 77.2%, 51.5%)" stroke-width="1.5"></path><path d="M973.44 251.03L830.01 384.33" stroke="hsl(228.5, 77.2%, 51.5%)" stroke-width="1.5"></path><path d="M973.44 251.03L961.67 533.22" stroke="hsl(228.5, 77.2%, 51.5%)" stroke-width="1.5"></path><path d="M973.44 251.03L1268.58 239.72" stroke="hsl(228.5, 77.2%, 51.5%)" stroke-width="1.5"></path><path d="M973.44 251.03L1139.35 526.72" stroke="hsl(228.5, 77.2%, 51.5%)" stroke-width="1.5"></path><path d="M968.72 371.28L968.72 371.28" stroke="hsl(228.5, 77.2%, 51.5%)" stroke-width="1.5"></path><path d="M968.72 371.28L961.67 533.22" stroke="hsl(228.5, 77.2%, 51.5%)" stroke-width="1.5"></path><path d="M968.72 371.28L1118.34 252.57" stroke="hsl(228.5, 77.2%, 51.5%)" stroke-width="1.5"></path><path d="M968.72 371.28L1139.35 526.72" stroke="hsl(228.5, 77.2%, 51.5%)" stroke-width="1.5"></path><path d="M961.67 533.22L961.67 533.22" stroke="hsl(228.5, 77.2%, 51.5%)" stroke-width="1.5"></path><path d="M961.67 533.22L979.51 685.62" stroke="hsl(228.5, 77.2%, 51.5%)" stroke-width="1.5"></path><path d="M979.51 685.62L979.51 685.62" stroke="hsl(228.5, 77.2%, 51.5%)" stroke-width="1.5"></path><path d="M979.51 685.62L1157.07 708.12" stroke="hsl(228.5, 77.2%, 51.5%)" stroke-width="1.5"></path><path d="M1118.34 252.57L1118.34 252.57" stroke="hsl(228.5, 77.2%, 51.5%)" stroke-width="1.5"></path><path d="M1118.34 252.57L1268.58 239.72" stroke="hsl(228.5, 77.2%, 51.5%)" stroke-width="1.5"></path><path d="M1118.34 252.57L1139.35 526.72" stroke="hsl(228.5, 77.2%, 51.5%)" stroke-width="1.5"></path><path d="M1118.34 252.57L1422.13 241.54" stroke="hsl(228.5, 77.2%, 51.5%)" stroke-width="1.5"></path><path d="M1157.07 708.12L1157.07 708.12" stroke="hsl(228.5, 77.2%, 51.5%)" stroke-width="1.5"></path><path d="M1157.07 708.12L1309.41 684.11" stroke="hsl(228.5, 77.2%, 51.5%)" stroke-width="1.5"></path><path d="M1298.3 -69.61L1298.3 -69.61" stroke="hsl(228.5, 77.2%, 51.5%)" stroke-width="1.5"></path><path d="M1298.3 -69.61L1447.88 -81.53" stroke="hsl(228.5, 77.2%, 51.5%)" stroke-width="1.5"></path><path d="M1268.58 239.72L1268.58 239.72" stroke="hsl(228.5, 77.2%, 51.5%)" stroke-width="1.5"></path><path d="M1309.41 684.11L1309.41 684.11" stroke="hsl(228.5, 77.2%, 51.5%)" stroke-width="1.5"></path><path d="M1309.41 684.11L1424.02 651.91" stroke="hsl(228.5, 77.2%, 51.5%)" stroke-width="1.5"></path><path d="M1309.41 684.11L1441.13 520.56" stroke="hsl(228.5, 77.2%, 51.5%)" stroke-width="1.5"></path><path d="M1309.41 684.11L1139.35 526.72" stroke="hsl(228.5, 77.2%, 51.5%)" stroke-width="1.5"></path><path d="M1309.41 684.11L1597.48 670.43" stroke="hsl(228.5, 77.2%, 51.5%)" stroke-width="1.5"></path><path d="M1447.88 -81.53L1447.88 -81.53" stroke="hsl(228.5, 77.2%, 51.5%)" stroke-width="1.5"></path><path d="M1447.88 -81.53L1537.51 -60.26" stroke="hsl(228.5, 77.2%, 51.5%)" stroke-width="1.5"></path><path d="M1447.88 -81.53L1392.21 104.77" stroke="hsl(228.5, 77.2%, 51.5%)" stroke-width="1.5"></path><path d="M1447.88 -81.53L1597.02 97.67" stroke="hsl(228.5, 77.2%, 51.5%)" stroke-width="1.5"></path><path d="M1447.88 -81.53L1252.9 66.7" stroke="hsl(228.5, 77.2%, 51.5%)" stroke-width="1.5"></path><path d="M1447.88 -81.53L1422.13 241.54" stroke="hsl(228.5, 77.2%, 51.5%)" stroke-width="1.5"></path><path d="M1392.21 104.77L1392.21 104.77" stroke="hsl(228.5, 77.2%, 51.5%)" stroke-width="1.5"></path><path d="M1453.4 371.35L1453.4 371.35" stroke="hsl(228.5, 77.2%, 51.5%)" stroke-width="1.5"></path><path d="M1453.4 371.35L1558.73 345.94" stroke="hsl(228.5, 77.2%, 51.5%)" stroke-width="1.5"></path><path d="M1453.4 371.35L1566.66 262.16" stroke="hsl(228.5, 77.2%, 51.5%)" stroke-width="1.5"></path><path d="M1453.4 371.35L1268.58 239.72" stroke="hsl(228.5, 77.2%, 51.5%)" stroke-width="1.5"></path><path d="M1453.4 371.35L1581.04 560.98" stroke="hsl(228.5, 77.2%, 51.5%)" stroke-width="1.5"></path><path d="M1424.02 651.91L1424.02 651.91" stroke="hsl(228.5, 77.2%, 51.5%)" stroke-width="1.5"></path><path d="M1424.02 651.91L1597.48 670.43" stroke="hsl(228.5, 77.2%, 51.5%)" stroke-width="1.5"></path><path d="M1424.02 651.91L1581.04 560.98" stroke="hsl(228.5, 77.2%, 51.5%)" stroke-width="1.5"></path><path d="M1424.02 651.91L1157.07 708.12" stroke="hsl(228.5, 77.2%, 51.5%)" stroke-width="1.5"></path><path d="M1537.51 -60.26L1537.51 -60.26" stroke="hsl(228.5, 77.2%, 51.5%)" stroke-width="1.5"></path><path d="M1537.51 -60.26L1597.02 97.67" stroke="hsl(228.5, 77.2%, 51.5%)" stroke-width="1.5"></path><path d="M1537.51 -60.26L1392.21 104.77" stroke="hsl(228.5, 77.2%, 51.5%)" stroke-width="1.5"></path><path d="M1597.02 97.67L1597.02 97.67" stroke="hsl(228.5, 77.2%, 51.5%)" stroke-width="1.5"></path><path d="M1597.02 97.67L1566.66 262.16" stroke="hsl(228.5, 77.2%, 51.5%)" stroke-width="1.5"></path><path d="M1597.02 97.67L1392.21 104.77" stroke="hsl(228.5, 77.2%, 51.5%)" stroke-width="1.5"></path><path d="M1597.02 97.67L1422.13 241.54" stroke="hsl(228.5, 77.2%, 51.5%)" stroke-width="1.5"></path><path d="M1566.66 262.16L1566.66 262.16" stroke="hsl(228.5, 77.2%, 51.5%)" stroke-width="1.5"></path><path d="M1566.66 262.16L1558.73 345.94" stroke="hsl(228.5, 77.2%, 51.5%)" stroke-width="1.5"></path><path d="M1558.73 345.94L1558.73 345.94" stroke="hsl(228.5, 77.2%, 51.5%)" stroke-width="1.5"></path><path d="M1558.73 345.94L1422.13 241.54" stroke="hsl(228.5, 77.2%, 51.5%)" stroke-width="1.5"></path><path d="M1558.73 345.94L1441.13 520.56" stroke="hsl(228.5, 77.2%, 51.5%)" stroke-width="1.5"></path><path d="M1558.73 345.94L1581.04 560.98" stroke="hsl(228.5, 77.2%, 51.5%)" stroke-width="1.5"></path><path d="M1581.04 560.98L1581.04 560.98" stroke="hsl(228.5, 77.2%, 51.5%)" stroke-width="1.5"></path><path d="M1581.04 560.98L1597.48 670.43" stroke="hsl(228.5, 77.2%, 51.5%)" stroke-width="1.5"></path><path d="M1597.48 670.43L1597.48 670.43" stroke="hsl(228.5, 77.2%, 51.5%)" stroke-width="1.5"></path><path d="M1597.48 670.43L1441.13 520.56" stroke="hsl(228.5, 77.2%, 51.5%)" stroke-width="1.5"></path><circle r="25" cx="-109.55" cy="647.29" fill="url(#SvgjsRadialGradient1001)"></circle><circle r="25" cx="1139.35" cy="526.72" fill="url(#SvgjsRadialGradient1001)"></circle><circle r="25" cx="1252.9" cy="66.7" fill="url(#SvgjsRadialGradient1001)"></circle><circle r="25" cx="1271.49" cy="549.65" fill="url(#SvgjsRadialGradient1001)"></circle><circle r="25" cx="1422.13" cy="241.54" fill="url(#SvgjsRadialGradient1001)"></circle><circle r="25" cx="1441.13" cy="520.56" fill="url(#SvgjsRadialGradient1001)"></circle><circle r="5" cx="-39.32" cy="550.84" fill="#8b9ad9"></circle><circle r="5" cx="81.44" cy="504" fill="#8b9ad9"></circle><circle r="5" cx="44.3" cy="684.53" fill="#8b9ad9"></circle><circle r="5" cx="246.91" cy="514.92" fill="#8b9ad9"></circle><circle r="5" cx="210.62" cy="645.16" fill="#8b9ad9"></circle><circle r="5" cx="364.1" cy="502.59" fill="#8b9ad9"></circle><circle r="5" cx="385.99" cy="651.76" fill="#8b9ad9"></circle><circle r="5" cx="535.57" cy="408.77" fill="#8b9ad9"></circle><circle r="5" cx="535.26" cy="529.7" fill="#8b9ad9"></circle><circle r="5" cx="521.17" cy="661.98" fill="#8b9ad9"></circle><circle r="5" cx="665.8" cy="540.01" fill="#8b9ad9"></circle><circle r="5" cx="666.75" cy="643.42" fill="#8b9ad9"></circle><circle r="5" cx="830.01" cy="384.33" fill="#8b9ad9"></circle><circle r="5" cx="801.95" cy="534.63" fill="#8b9ad9"></circle><circle r="5" cx="803.59" cy="683.82" fill="#8b9ad9"></circle><circle r="5" cx="973.44" cy="251.03" fill="#8b9ad9"></circle><circle r="5" cx="968.72" cy="371.28" fill="#8b9ad9"></circle><circle r="5" cx="961.67" cy="533.22" fill="#8b9ad9"></circle><circle r="5" cx="979.51" cy="685.62" fill="#8b9ad9"></circle><circle r="5" cx="1118.34" cy="252.57" fill="#8b9ad9"></circle><circle r="5" cx="1157.07" cy="708.12" fill="#8b9ad9"></circle><circle r="5" cx="1298.3" cy="-69.61" fill="#8b9ad9"></circle><circle r="5" cx="1268.58" cy="239.72" fill="#8b9ad9"></circle><circle r="5" cx="1309.41" cy="684.11" fill="#8b9ad9"></circle><circle r="5" cx="1447.88" cy="-81.53" fill="#8b9ad9"></circle><circle r="5" cx="1392.21" cy="104.77" fill="#8b9ad9"></circle><circle r="5" cx="1453.4" cy="371.35" fill="#8b9ad9"></circle><circle r="5" cx="1424.02" cy="651.91" fill="#8b9ad9"></circle><circle r="5" cx="1537.51" cy="-60.26" fill="#8b9ad9"></circle><circle r="5" cx="1597.02" cy="97.67" fill="#8b9ad9"></circle><circle r="5" cx="1566.66" cy="262.16" fill="#8b9ad9"></circle><circle r="5" cx="1558.73" cy="345.94" fill="#8b9ad9"></circle><circle r="5" cx="1581.04" cy="560.98" fill="#8b9ad9"></circle><circle r="5" cx="1597.48" cy="670.43" fill="#8b9ad9"></circle></g><defs><mask id="SvgjsMask1000"><rect width="1440" height="560" fill="#ffffff"></rect></mask><radialGradient id="SvgjsRadialGradient1001"><stop stop-color="#ffffff" offset="0.1"></stop><stop stop-color="#1735b3" offset="0.2"></stop><stop stop-color="rgba(23, 53, 179, 0)" offset="1"></stop></radialGradient></defs></svg>